<?xml version="1.0" standalone="no"?>
<svg viewBox="0 0 200 200" xmlns="http://www.w3.org/2000/svg">
  <path fill="#BAE6FF" d="M43.6,-76.1C57.3,-67.7,69.8,-57.6,78.6,-44.6C87.4,-31.7,92.5,-15.8,92.7,0.1C92.9,16,88.1,32.1,79.4,45.2C70.7,58.3,58.1,68.5,44.2,75.3C30.3,82.2,15.1,85.7,-0.7,86.8C-16.5,88,-32.9,86.7,-45.7,79.3C-58.6,71.8,-67.8,58.1,-74.8,43.9C-81.8,29.7,-86.6,14.8,-87.5,-0.5C-88.5,-15.9,-85.6,-31.8,-77.9,-44.9C-70.2,-57.9,-57.7,-68.1,-43.9,-76.5C-30.1,-84.9,-15.1,-91.5,0,-91.4C15,-91.3,29.9,-84.5,43.6,-76.1Z" transform="translate(100 100)" />
</svg>
