<?xml version="1.0" standalone="no"?>
<svg viewBox="0 0 200 200" xmlns="http://www.w3.org/2000/svg">
  <path fill="#F1C21B" d="M41.6,-68C55.6,-64,69.7,-56.2,78.7,-44.2C87.8,-32.2,91.8,-16.1,90.6,-0.7C89.3,14.7,82.8,29.4,72.6,39.3C62.3,49.2,48.3,54.3,35.6,58.9C22.9,63.5,11.4,67.6,-2,71.1C-15.5,74.6,-31,77.6,-43,72.6C-55,67.5,-63.5,54.6,-67.4,41.1C-71.4,27.7,-70.8,13.9,-71.7,-0.5C-72.6,-14.9,-75,-29.8,-68.6,-39.1C-62.3,-48.3,-47.2,-52,-34.3,-56.6C-21.4,-61.2,-10.7,-66.7,1.6,-69.4C13.8,-72.1,27.6,-72,41.6,-68Z" transform="translate(100 100)" />
</svg>
