<?xml version="1.0" standalone="no"?><svg xmlns="http://www.w3.org/2000/svg" viewBox="0 0 1440 320"><path fill="#c0392b" fill-opacity="1" d="M0,192L40,208C80,224,160,256,240,277.3C320,299,400,309,480,293.3C560,277,640,235,720,202.7C800,171,880,149,960,149.3C1040,149,1120,171,1200,165.3C1280,160,1360,128,1400,112L1440,96L1440,320L1400,320C1360,320,1280,320,1200,320C1120,320,1040,320,960,320C880,320,800,320,720,320C640,320,560,320,480,320C400,320,320,320,240,320C160,320,80,320,40,320L0,320Z"></path></svg>